<?xml version="1.0" encoding="UTF-8"?><svg id="Calque_2" xmlns="http://www.w3.org/2000/svg" viewBox="0 0 848.84 265.43"><defs><style>.cls-1{fill:#fff;}.cls-2{fill:#1d1d1b;}.cls-3{fill:#29b8ce;}</style></defs><polygon class="cls-2" points="438.78 94.72 387.05 94.72 387.05 75.67 415.83 75.67 415.83 49.82 387.05 49.82 387.05 31.34 437.35 31.34 437.35 3.53 356.19 3.53 356.19 122.52 356.19 122.54 387.05 122.52 438.78 122.52 438.78 94.72"/><path class="cls-2" d="m84.75,3.53h-42.69L2.94,122.54h32.64l6.51-23.24h42.59l6.53,23.24h32.64L84.75,3.53Zm-35.66,69.92l13.63-42.12h1.36l13.62,42.12h-28.61Z"/><polygon class="cls-2" points="535.83 94.72 484.1 94.72 484.1 75.67 512.88 75.67 512.88 49.82 484.1 49.82 484.1 31.34 534.4 31.34 534.4 3.53 453.25 3.53 453.25 122.52 453.25 122.54 535.83 122.52 535.83 94.72"/><circle class="cls-2" cx="324.75" cy="17.86" r="17.08"/><path class="cls-2" d="m244.88,85.36c-9.31,24.07-32.8,41.39-59.47,40.1-33.48-1.63-60.6-31.6-58.94-65.85C128.14,25.36,157.96-1.02,191.44.61c7.08.34,13.82,1.92,20.03,4.51l-10.71,26.81c-2.86-1.05-5.88-1.69-8.98-1.84-16.9-.82-31.31,13.12-32.19,31.13-.87,18.02,12.12,34.11,29.02,34.93,13.22.64,25.83-8.53,31.11-20.84l25.16,10.05Z"/><polygon class="cls-2" points="298.51 3.53 233.59 3.53 233.59 31.34 268.03 31.34 268.03 122.54 298.88 122.54 298.88 3.53 298.51 3.53"/><rect class="cls-2" x="585.32" y="3.52" width="4.06" height="119.03"/><polygon class="cls-3" points="698.3 3.53 698.3 94.72 638.86 94.72 638.86 122.54 720.26 122.54 726.99 115.83 726.99 3.53 698.3 3.53"/><polygon class="cls-3" points="730.22 3.53 730.22 122.54 730.22 122.54 758.46 122.54 758.47 122.54 758.47 3.53 730.22 3.53"/><polygon class="cls-3" points="761.72 3.53 761.7 3.53 761.7 115.83 768.43 122.54 848.84 122.54 848.84 122.54 848.84 94.72 790.45 94.72 790.45 3.53 761.72 3.53"/><polygon class="cls-3" points="666.65 3.53 666.65 63.28 638.86 63.28 638.86 91.39 689.8 91.39 695.07 86.12 695.07 3.53 666.65 3.53"/><polygon class="cls-3" points="793.68 3.53 793.68 86.27 798.96 91.54 848.84 91.54 848.84 63.44 822.03 63.44 822.03 3.53 793.68 3.53"/><g><path class="cls-1" d="m676.62,42.93c2.32,0,10.86-.05,13.1-.27-.06.27-.11.88-.11,1.15s.05.79.11,1.06c-1.81-.19-10.78-.22-13.1-.22v18.83h-4.06V26.29h19.46c-.05.27-.08.55-.08.82s.03.54.08.81c-1.94-.19-13.65-.35-15.4-.35v15.36Z"/><path class="cls-1" d="m723.98,26.34v37.82h-.7c-6.18-9.63-13.46-19.96-20.41-29.76v29.05h-2.44V25.64h1.02c6.62,9.52,15.45,22.49,20.41,29.11v-28.41h2.12Z"/><path class="cls-1" d="m754.19,61.2c-.95,1.1-4.13,3.13-7.95,3.13-8.06,0-13.95-7.19-13.95-19.65s5.88-19.65,14.33-19.65c3.29,0,6.23,1.15,8.29,2.53-.38.99-.65,3.13-.8,4.28l-.23.11c-1.07-1.7-3.67-4.88-7.26-4.88-6,0-10.58,5.43-10.58,17.61s4.58,17.62,10.58,17.62c3.63,0,6.31-2.96,7.76-4.56l.15.22-.34,3.24Z"/><path class="cls-1" d="m786.17,61.2c-.95,1.1-4.13,3.13-7.95,3.13-8.06,0-13.95-7.19-13.95-19.65s5.88-19.65,14.33-19.65c3.28,0,6.23,1.15,8.29,2.53-.38.99-.65,3.13-.8,4.28l-.23.11c-1.07-1.7-3.67-4.88-7.26-4.88-6,0-10.59,5.43-10.59,17.61s4.58,17.62,10.59,17.62c3.63,0,6.31-2.96,7.76-4.56l.15.22-.34,3.24Z"/><path class="cls-1" d="m800.25,43.47v-14.99h4.78c3.23,0,7.36,1.26,7.36,6.9,0,6.4-5.18,8.09-9.07,8.09h-3.07Zm0,2.12h1.69c4.08,4.68,10.4,14.57,12.3,17.85h5.6c-2.75-3.49-10.68-15.05-13.01-18.33,3.61-.54,9.73-3.33,9.73-10.26,0-6.4-4.51-8.49-9.88-8.49h-10.82v37.09h4.38v-17.85Z"/></g><g><path class="cls-2" d="m7.72,182.43l-2.08-.57.96-2.82h6.85l.87,2.82-1.99.57v2.09h8.32v-2.09l-1.66-.54-6.26-17.84-4.26.12-6.62,17.74-1.7.53v2.09h7.57v-2.09Zm2.56-14.56l2.39,8.3h-5.17l2.78-8.3Z"/><path class="cls-2" d="m25.33,183.93c1.07.63,2.28.94,3.61.94,1.08,0,2.17-.2,3.25-.59,1.08-.4,2.17-1.01,3.25-1.84l-1.36-2.06c-.77.5-1.52.88-2.23,1.13s-1.37.38-1.97.38c-.75,0-1.42-.2-1.99-.59s-1.01-.98-1.32-1.75c-.31-.77-.46-1.72-.46-2.84,0-1.04.13-1.95.41-2.71.27-.76.68-1.35,1.23-1.77.55-.42,1.24-.62,2.07-.62.35,0,.73.03,1.15.09.29.04.54.1.76.17l.41,2.24h2.61l.12-4.26c-.6-.29-1.37-.55-2.32-.78-.95-.23-1.89-.35-2.81-.35-.99,0-1.94.14-2.87.43-.93.29-1.77.76-2.52,1.41-.75.65-1.35,1.49-1.8,2.54s-.67,2.33-.67,3.86c0,1.68.31,3.11.93,4.29.62,1.18,1.46,2.08,2.54,2.71Z"/><path class="cls-2" d="m38.8,180.08c0,1.58.34,2.78,1.03,3.58.69.8,1.7,1.2,3.03,1.2,1.49,0,3.04-.44,4.67-1.33l-.75-2.23c-.45.17-.86.31-1.23.42-.38.11-.72.16-1.03.16-.54,0-.95-.18-1.22-.55-.27-.37-.41-.97-.41-1.8v-7.8h3.92l.06-2.7h-3.97v-4.12l-4.09.72v3.38l-2.26.53v2.17h2.26v8.35Z"/><path class="cls-2" d="m53.25,166.66c.68,0,1.24-.2,1.7-.59.45-.4.68-.99.68-1.78s-.22-1.39-.67-1.78c-.45-.4-1.01-.59-1.68-.59s-1.27.2-1.73.59c-.45.4-.68,1-.68,1.81,0,.75.22,1.33.65,1.74.44.41,1.01.61,1.73.61Z"/><polygon class="cls-2" points="57.33 182.43 55.39 181.88 55.39 168.92 49.39 169.12 49.39 171.21 51.33 171.75 51.33 181.88 49.39 182.43 49.39 184.52 57.33 184.52 57.33 182.43"/><path class="cls-2" d="m66.56,184.87c1.62,0,3.02-.34,4.18-1.01,1.16-.68,2.05-1.64,2.67-2.89s.93-2.74.93-4.48c0-2.49-.64-4.42-1.91-5.77s-3.05-2.03-5.34-2.03c-1.62,0-3.01.34-4.15,1.01-1.14.68-2.02,1.64-2.62,2.89s-.91,2.74-.91,4.48c0,2.49.62,4.42,1.87,5.77s3.01,2.03,5.29,2.03Zm-2.15-11.99c.54-.86,1.36-1.29,2.46-1.29s1.89.41,2.44,1.23c.54.82.81,2.11.81,3.87,0,1.16-.13,2.14-.38,2.93-.25.79-.62,1.38-1.1,1.77-.48.39-1.11.58-1.88.58-1.06,0-1.86-.4-2.38-1.2-.52-.8-.78-2.1-.78-3.9s.27-3.13.81-3.99Z"/><path class="cls-2" d="m84.54,182.43l-1.74-.52v-8.63c.52-.46,1.04-.84,1.57-1.09.62-.29,1.19-.43,1.71-.43.68,0,1.22.22,1.64.67s.62,1.14.62,2.09v7.41l-1.74.5v2.09h7.74v-2.09l-1.94-.58v-8.2c.02-1.66-.41-2.9-1.28-3.73-.87-.82-1.96-1.23-3.28-1.23-.95,0-1.94.23-2.99.68-.89.39-1.74.97-2.55,1.72l-.41-2.19-5.1.23v2.09l1.94.58v10.09l-1.94.56v2.09h7.74v-2.09Z"/><path class="cls-2" d="m104.99,183.98c.86.59,1.85.88,2.97.88.93,0,1.81-.21,2.65-.62.74-.36,1.48-.9,2.22-1.58l.43,2.06,5.1-.23v-2.06l-1.94-.6v-19.87l-6.15.23v2.06l2.09.69v3.9c-.19-.03-.4-.07-.58-.09-.43-.04-.85-.06-1.28-.06-2.63,0-4.67.69-6.12,2.07-1.45,1.38-2.17,3.5-2.17,6.37,0,1.66.25,3.07.74,4.23s1.17,2.04,2.03,2.62Zm2.41-11.02c.63-.92,1.63-1.38,3-1.38.59,0,1.26.1,1.97.27v8.77c-.42.34-.84.63-1.25.83-.56.28-1.09.42-1.6.42-.64,0-1.18-.21-1.64-.62-.45-.42-.81-1.01-1.06-1.78-.25-.77-.38-1.68-.38-2.73,0-1.6.31-2.87.94-3.78Z"/><path class="cls-2" d="m123.8,183.98c1.06.59,2.3.88,3.71.88,1.1,0,2.24-.19,3.41-.57s2.32-.95,3.44-1.73l-1.36-2.17c-.83.48-1.63.85-2.39,1.09-.76.24-1.47.36-2.13.36-.93,0-1.68-.23-2.25-.7-.57-.46-.98-1.1-1.23-1.91-.16-.51-.25-1.08-.31-1.68h9.65c.06-.37.1-.71.13-1.04.03-.33.04-.66.04-.99,0-1.29-.22-2.46-.67-3.49s-1.14-1.85-2.09-2.45c-.95-.6-2.17-.9-3.68-.9s-2.89.34-4.03,1.01c-1.14.68-2.03,1.64-2.65,2.89s-.94,2.74-.94,4.48.29,3.11.88,4.28c.59,1.17,1.42,2.05,2.48,2.64Zm2.12-11.72c.46-.43,1.07-.65,1.83-.65.66,0,1.17.17,1.55.49.38.33.65.79.81,1.38.14.49.19,1.05.2,1.67h-5.62c.05-.4.12-.77.22-1.13.2-.73.54-1.32,1-1.75Z"/><path class="cls-2" d="m143.97,181.97c-.44.13-.9.2-1.41.2-.35,0-.75-.03-1.22-.1-.35-.05-.67-.12-.98-.2l-.27-2.14h-2.55l-.17,4.38c.91.23,1.79.42,2.65.55.86.14,1.68.2,2.45.2,1.33,0,2.53-.19,3.6-.58,1.06-.39,1.9-.97,2.52-1.74.62-.77.93-1.73.93-2.87,0-.89-.19-1.61-.58-2.17s-.88-1.01-1.49-1.35-1.26-.61-1.94-.83c-.69-.21-1.33-.42-1.94-.61s-1.11-.42-1.49-.7c-.39-.27-.58-.63-.58-1.07,0-.5.22-.89.65-1.17s1.01-.42,1.73-.42c.57,0,1.24.11,1.96.28l.36,1.78h2.58l.15-3.89c-.93-.27-1.84-.48-2.73-.62-.89-.15-1.73-.22-2.52-.22-1.12,0-2.15.16-3.09.49-.94.33-1.69.85-2.25,1.55-.56.71-.84,1.62-.84,2.74,0,.93.19,1.68.58,2.26s.88,1.04,1.49,1.39c.61.35,1.25.63,1.91.84s1.31.42,1.91.61c.61.19,1.11.43,1.49.7.39.27.58.64.58,1.1,0,.41-.14.74-.42,1s-.64.46-1.07.59Z"/><path class="cls-2" d="m162.69,183.69c1.31.78,2.76,1.17,4.35,1.17,1.24,0,2.5-.24,3.78-.72s2.53-1.21,3.73-2.17l-1.54-2.41c-.85.66-1.7,1.15-2.54,1.46-.84.32-1.64.48-2.39.48-1.01,0-1.91-.28-2.71-.83-.8-.55-1.43-1.39-1.89-2.52-.45-1.13-.68-2.55-.68-4.25,0-1.45.19-2.7.58-3.74.39-1.04.96-1.84,1.71-2.39.75-.55,1.68-.83,2.78-.83.52,0,1.09.07,1.71.2.43.09.88.23,1.34.39l.6,2.94h2.47l.26-5.22c-1.22-.5-2.36-.88-3.42-1.13-1.06-.25-2.1-.38-3.1-.38-1.9,0-3.55.42-4.96,1.28-1.41.85-2.5,2.07-3.28,3.65-.77,1.59-1.16,3.5-1.16,5.74s.4,4.2,1.19,5.76c.79,1.56,1.85,2.73,3.16,3.51Z"/><path class="cls-2" d="m183.63,184.87c1.62,0,3.02-.34,4.18-1.01,1.16-.68,2.05-1.64,2.67-2.89s.93-2.74.93-4.48c0-2.49-.64-4.42-1.91-5.77s-3.05-2.03-5.34-2.03c-1.62,0-3.01.34-4.15,1.01-1.14.68-2.02,1.64-2.62,2.89s-.91,2.74-.91,4.48c0,2.49.62,4.42,1.87,5.77s3.01,2.03,5.29,2.03Zm-2.15-11.99c.54-.86,1.36-1.29,2.46-1.29s1.89.41,2.44,1.23c.54.82.81,2.11.81,3.87,0,1.16-.13,2.14-.38,2.93-.25.79-.62,1.38-1.1,1.77-.48.39-1.11.58-1.88.58-1.06,0-1.86-.4-2.38-1.2-.52-.8-.78-2.1-.78-3.9s.27-3.13.81-3.99Z"/><polygon class="cls-2" points="201.4 182.43 199.46 181.88 199.46 161.96 193.49 162.19 193.49 164.28 195.4 164.81 195.4 181.89 193.49 182.43 193.49 184.52 201.4 184.52 201.4 182.43"/><polygon class="cls-2" points="211.18 182.43 209.23 181.88 209.23 161.96 203.26 162.19 203.26 164.28 205.17 164.81 205.17 181.89 203.26 182.43 203.26 184.52 211.18 184.52 211.18 182.43"/><path class="cls-2" d="m216.63,183.98c1.06.59,2.3.88,3.71.88,1.1,0,2.24-.19,3.41-.57s2.32-.95,3.44-1.73l-1.36-2.17c-.83.48-1.63.85-2.39,1.09-.76.24-1.47.36-2.13.36-.93,0-1.68-.23-2.25-.7-.57-.46-.98-1.1-1.23-1.91-.16-.51-.25-1.08-.31-1.68h9.65c.06-.37.1-.71.13-1.04.03-.33.04-.66.04-.99,0-1.29-.22-2.46-.67-3.49s-1.14-1.85-2.09-2.45c-.95-.6-2.17-.9-3.68-.9s-2.89.34-4.03,1.01c-1.14.68-2.03,1.64-2.65,2.89s-.94,2.74-.94,4.48.29,3.11.88,4.28c.59,1.17,1.42,2.05,2.48,2.64Zm2.12-11.72c.46-.43,1.07-.65,1.83-.65.66,0,1.17.17,1.55.49.38.33.65.79.81,1.38.14.49.19,1.05.2,1.67h-5.62c.05-.4.12-.77.22-1.13.2-.73.54-1.32,1-1.75Z"/><path class="cls-2" d="m233.32,183.93c1.07.63,2.28.94,3.61.94,1.08,0,2.17-.2,3.25-.59,1.08-.4,2.17-1.01,3.25-1.84l-1.36-2.06c-.77.5-1.52.88-2.23,1.13s-1.37.38-1.97.38c-.75,0-1.42-.2-1.99-.59s-1.01-.98-1.32-1.75c-.31-.77-.46-1.72-.46-2.84,0-1.04.13-1.95.41-2.71.27-.76.68-1.35,1.23-1.77.55-.42,1.24-.62,2.07-.62.35,0,.73.03,1.15.09.29.04.54.1.76.17l.41,2.24h2.61l.12-4.26c-.6-.29-1.37-.55-2.32-.78-.95-.23-1.89-.35-2.81-.35-.99,0-1.94.14-2.87.43-.93.29-1.77.76-2.52,1.41-.75.65-1.35,1.49-1.8,2.54s-.67,2.33-.67,3.86c0,1.68.31,3.11.93,4.29.62,1.18,1.46,2.08,2.54,2.71Z"/><path class="cls-2" d="m246.79,180.08c0,1.58.34,2.78,1.03,3.58.69.8,1.7,1.2,3.03,1.2,1.49,0,3.04-.44,4.67-1.33l-.75-2.23c-.45.17-.86.31-1.23.42-.38.11-.72.16-1.03.16-.54,0-.95-.18-1.22-.55-.27-.37-.41-.97-.41-1.8v-7.8h3.92l.06-2.7h-3.97v-4.12l-4.09.72v3.38l-2.26.53v2.17h2.26v8.35Z"/><path class="cls-2" d="m261.23,166.66c.68,0,1.24-.2,1.7-.59.45-.4.68-.99.68-1.78s-.22-1.39-.67-1.78c-.45-.4-1.01-.59-1.68-.59s-1.27.2-1.73.59c-.45.4-.68,1-.68,1.81,0,.75.22,1.33.65,1.74.44.41,1.01.61,1.73.61Z"/><polygon class="cls-2" points="265.32 182.43 263.38 181.88 263.38 168.92 257.37 169.12 257.37 171.21 259.32 171.75 259.32 181.88 257.37 182.43 257.37 184.52 265.32 184.52 265.32 182.43"/><polygon class="cls-2" points="271.23 184.58 275.99 184.58 280.62 171.53 281.88 170.98 281.88 168.92 275.32 169.15 275.32 171.24 276.98 171.58 273.96 181.44 271.26 171.5 272.98 170.98 272.98 168.92 265.87 169.15 265.87 171.24 267.14 171.58 271.23 184.58"/><path class="cls-2" d="m287.1,166.66c.68,0,1.24-.2,1.7-.59.45-.4.68-.99.68-1.78s-.22-1.39-.67-1.78c-.45-.4-1.01-.59-1.68-.59s-1.27.2-1.72.59c-.46.4-.68,1-.68,1.81,0,.75.22,1.33.65,1.74.43.41,1.01.61,1.73.61Z"/><polygon class="cls-2" points="291.19 182.43 289.24 181.88 289.24 168.92 283.24 169.12 283.24 171.21 285.18 171.75 285.18 181.88 283.24 182.43 283.24 184.52 291.19 184.52 291.19 182.43"/><path class="cls-2" d="m294.78,180.08c0,1.58.34,2.78,1.03,3.58.69.8,1.7,1.2,3.03,1.2,1.49,0,3.04-.44,4.67-1.33l-.75-2.23c-.45.17-.86.31-1.23.42-.38.11-.72.16-1.03.16-.54,0-.95-.18-1.22-.55-.27-.37-.41-.97-.41-1.8v-7.8h3.92l.06-2.7h-3.97v-4.12l-4.09.72v3.38l-2.26.53v2.17h2.26v8.35Z"/><path class="cls-2" d="m308.3,183.98c1.06.59,2.3.88,3.71.88,1.1,0,2.24-.19,3.41-.57,1.17-.38,2.31-.95,3.44-1.73l-1.36-2.17c-.83.48-1.63.85-2.39,1.09s-1.47.36-2.13.36c-.93,0-1.68-.23-2.25-.7s-.98-1.1-1.23-1.91c-.16-.51-.25-1.08-.31-1.68h9.65c.06-.37.1-.71.13-1.04.03-.33.04-.66.04-.99,0-1.29-.22-2.46-.67-3.49-.45-1.03-1.14-1.85-2.09-2.45-.95-.6-2.17-.9-3.68-.9s-2.89.34-4.03,1.01c-1.14.68-2.03,1.64-2.65,2.89-.63,1.25-.94,2.74-.94,4.48s.29,3.11.88,4.28c.59,1.17,1.42,2.05,2.48,2.64Zm2.12-11.72c.46-.43,1.07-.65,1.83-.65.66,0,1.17.17,1.55.49.38.33.65.79.81,1.38.14.49.19,1.05.2,1.67h-5.62c.05-.4.12-.77.22-1.13.2-.73.54-1.32,1-1.75Z"/><polygon class="cls-2" points="316.94 163.06 314.88 160.28 308.85 164.98 310.27 166.95 316.94 163.06"/><path class="cls-2" d="m328.49,181.97c-.43.13-.9.2-1.41.2-.35,0-.75-.03-1.22-.1-.35-.05-.67-.12-.98-.2l-.27-2.14h-2.55l-.17,4.38c.91.23,1.79.42,2.65.55.86.14,1.68.2,2.45.2,1.33,0,2.53-.19,3.6-.58,1.06-.39,1.9-.97,2.52-1.74.62-.77.93-1.73.93-2.87,0-.89-.19-1.61-.58-2.17s-.88-1.01-1.49-1.35-1.26-.61-1.94-.83c-.69-.21-1.33-.42-1.94-.61-.61-.19-1.11-.42-1.49-.7-.39-.27-.58-.63-.58-1.07,0-.5.22-.89.65-1.17.43-.28,1.01-.42,1.72-.42.57,0,1.24.11,1.96.28l.36,1.78h2.58l.15-3.89c-.93-.27-1.84-.48-2.73-.62-.89-.15-1.73-.22-2.52-.22-1.12,0-2.15.16-3.09.49-.94.33-1.69.85-2.25,1.55-.56.71-.84,1.62-.84,2.74,0,.93.19,1.68.58,2.26s.88,1.04,1.49,1.39c.61.35,1.25.63,1.91.84s1.3.42,1.91.61c.61.19,1.11.43,1.49.7s.58.64.58,1.1c0,.41-.14.74-.42,1s-.64.46-1.07.59Z"/><polygon class="cls-2" points=".64 205.97 3.1 205.97 3.71 203.09 6.85 203.09 6.85 217.81 4.38 218.44 4.38 220.52 13.49 220.52 13.49 218.44 11.02 217.81 11.02 203.09 14.17 203.09 14.76 205.97 17.23 205.97 17.23 200.11 .64 200.11 .64 205.97"/><path class="cls-2" d="m32.29,212.52c.03-.33.04-.66.04-.99,0-1.29-.22-2.46-.67-3.49s-1.14-1.85-2.09-2.45c-.95-.6-2.17-.9-3.68-.9s-2.89.34-4.03,1.01c-1.14.68-2.03,1.64-2.65,2.89s-.94,2.74-.94,4.48.29,3.11.88,4.28c.59,1.17,1.42,2.05,2.48,2.64,1.06.59,2.3.88,3.71.88,1.1,0,2.24-.19,3.41-.57s2.32-.95,3.44-1.73l-1.36-2.17c-.83.48-1.63.85-2.39,1.09-.76.24-1.47.36-2.13.36-.93,0-1.68-.23-2.25-.7-.57-.46-.98-1.1-1.23-1.91-.16-.51-.25-1.08-.31-1.68h9.65c.06-.37.1-.71.13-1.04Zm-8.54-4.25c.46-.43,1.07-.65,1.83-.65.66,0,1.17.17,1.55.49.38.33.65.79.81,1.38.14.49.19,1.05.2,1.67h-5.62c.05-.4.12-.77.22-1.13.2-.73.54-1.32,1-1.75Z"/><path class="cls-2" d="m45.27,204.69c-.97,0-1.88.25-2.73.74-.71.41-1.43.98-2.16,1.69l-.42-2.22-5.1.23v2.09l1.94.58v10.09l-1.94.55v2.09h8.41v-2.09l-2.41-.56v-8.39c.36-.41.75-.78,1.2-1.06.59-.37,1.18-.55,1.78-.55.12,0,.24,0,.36.03.03,0,.05.01.08.02l.31,2.33h2.38l.26-5.28c-.7-.19-1.35-.29-1.97-.29Z"/><path class="cls-2" d="m61.13,210.26l.26-5.28c-.7-.19-1.35-.29-1.97-.29-.97,0-1.88.25-2.73.74-.71.41-1.43.98-2.16,1.69l-.42-2.22-5.1.23v2.09l1.94.58v10.09l-1.94.55v2.09h8.41v-2.09l-2.41-.56v-8.39c.36-.41.75-.78,1.2-1.06.59-.37,1.18-.55,1.78-.55.12,0,.24,0,.36.03.03,0,.05.01.08.02l.31,2.33h2.38Z"/><path class="cls-2" d="m68.72,202.06c.45-.4.68-.99.68-1.78s-.22-1.39-.67-1.78c-.45-.4-1.01-.59-1.68-.59s-1.27.2-1.73.59c-.45.4-.68,1-.68,1.81,0,.75.22,1.33.65,1.74.44.41,1.01.61,1.73.61.68,0,1.24-.2,1.7-.59Z"/><polygon class="cls-2" points="71.11 218.44 69.17 217.88 69.17 204.92 63.16 205.12 63.16 207.21 65.11 207.75 65.11 217.88 63.16 218.44 63.16 220.52 71.11 220.52 71.11 218.44"/><path class="cls-2" d="m81.45,217.72c-.38.11-.72.16-1.03.16-.54,0-.95-.18-1.22-.55-.27-.37-.41-.97-.41-1.8v-7.8h3.92l.06-2.7h-3.97v-4.12l-4.09.72v3.38l-2.26.53v2.17h2.26v8.35c0,1.58.34,2.78,1.03,3.58.69.8,1.7,1.2,3.03,1.2,1.49,0,3.04-.44,4.67-1.33l-.75-2.23c-.45.17-.86.31-1.23.42Z"/><path class="cls-2" d="m92.54,204.69c-1.62,0-3.01.34-4.15,1.01-1.14.68-2.02,1.64-2.62,2.89s-.91,2.74-.91,4.48c0,2.49.62,4.42,1.87,5.77s3.01,2.03,5.29,2.03c1.62,0,3.02-.34,4.18-1.01,1.16-.68,2.05-1.64,2.67-2.89s.93-2.74.93-4.48c0-2.49-.64-4.42-1.91-5.77s-3.05-2.03-5.34-2.03Zm2.67,10.93c-.25.79-.62,1.38-1.1,1.77-.48.39-1.11.58-1.88.58-1.06,0-1.86-.4-2.38-1.2-.52-.8-.78-2.1-.78-3.9s.27-3.13.81-3.99c.54-.86,1.36-1.29,2.46-1.29s1.89.41,2.44,1.23c.54.82.81,2.11.81,3.87,0,1.16-.13,2.14-.38,2.93Z"/><path class="cls-2" d="m109.94,205.43c-.71.41-1.43.98-2.16,1.69l-.42-2.22-5.1.23v2.09l1.94.58v10.09l-1.94.55v2.09h8.41v-2.09l-2.41-.56v-8.39c.36-.41.75-.78,1.2-1.06.59-.37,1.18-.55,1.78-.55.12,0,.24,0,.36.03.03,0,.05.01.08.02l.31,2.33h2.38l.26-5.28c-.7-.19-1.35-.29-1.97-.29-.97,0-1.88.25-2.73.74Z"/><path class="cls-2" d="m118.54,202.05c.44.41,1.01.61,1.73.61.68,0,1.24-.2,1.7-.59.45-.4.68-.99.68-1.78s-.22-1.39-.67-1.78c-.45-.4-1.01-.59-1.68-.59s-1.27.2-1.73.59c-.45.4-.68,1-.68,1.81,0,.75.22,1.33.65,1.74Z"/><polygon class="cls-2" points="122.41 204.92 116.41 205.12 116.41 207.21 118.35 207.75 118.35 217.88 116.41 218.44 116.41 220.52 124.35 220.52 124.35 218.44 122.41 217.88 122.41 204.92"/><path class="cls-2" d="m132.36,211.79c-1.3,0-2.4.14-3.31.43-.91.29-1.6.76-2.07,1.41-.47.65-.71,1.52-.71,2.62,0,1.49.41,2.63,1.22,3.42s1.84,1.19,3.07,1.19c.97,0,1.9-.23,2.81-.7.82-.42,1.59-1.05,2.3-1.87l.48,2.45,5.07-.26v-2.06l-1.94-.61v-8.38c0-1.62-.47-2.82-1.42-3.6-.95-.77-2.32-1.16-4.12-1.16-.91,0-1.91.09-3,.28-1.09.18-2.3.47-3.61.86l.23,4.23h2.52l.32-2c.41-.11.8-.2,1.16-.26.46-.08.9-.12,1.31-.12.83,0,1.46.19,1.9.58s.65,1.03.65,1.94v1.6h-2.87Zm-.2,6.15c-.52,0-.95-.17-1.29-.51-.34-.34-.51-.86-.51-1.58,0-.66.19-1.14.58-1.45.39-.31,1.08-.46,2.09-.46h2.2v2.47c-.47.44-.96.81-1.48,1.08-.58.3-1.11.45-1.59.45Z"/><polygon class="cls-2" points="150.68 218.44 148.74 217.88 148.74 197.96 142.77 198.19 142.77 200.28 144.68 200.82 144.68 217.89 142.77 218.44 142.77 220.52 150.68 220.52 150.68 218.44"/><path class="cls-2" d="m166.69,218.58l-1.36-2.17c-.83.48-1.63.85-2.39,1.09-.76.24-1.47.36-2.13.36-.93,0-1.68-.23-2.25-.7-.57-.46-.98-1.1-1.23-1.91-.16-.51-.25-1.08-.31-1.68h9.65c.06-.37.1-.71.13-1.04.03-.33.04-.66.04-.99,0-1.29-.22-2.46-.67-3.49s-1.14-1.85-2.09-2.45c-.95-.6-2.17-.9-3.68-.9s-2.89.34-4.03,1.01c-1.14.68-2.03,1.64-2.65,2.89s-.94,2.74-.94,4.48.29,3.11.88,4.28c.59,1.17,1.42,2.05,2.48,2.64,1.06.59,2.3.88,3.71.88,1.1,0,2.24-.19,3.41-.57s2.32-.95,3.44-1.73Zm-8.44-10.31c.46-.43,1.07-.65,1.83-.65.66,0,1.17.17,1.55.49.38.33.65.79.81,1.38.14.49.19,1.05.2,1.67h-5.62c.05-.4.12-.77.22-1.13.2-.73.54-1.32,1-1.75Z"/><path class="cls-2" d="m180.93,218.55c.62-.77.93-1.73.93-2.87,0-.89-.19-1.61-.58-2.17s-.88-1.01-1.49-1.35-1.26-.61-1.94-.83c-.69-.21-1.33-.42-1.94-.61s-1.11-.42-1.49-.7c-.39-.27-.58-.63-.58-1.07,0-.5.22-.89.65-1.17s1.01-.42,1.73-.42c.57,0,1.24.11,1.96.28l.36,1.78h2.58l.15-3.89c-.93-.27-1.84-.48-2.73-.62-.89-.15-1.73-.22-2.52-.22-1.12,0-2.15.16-3.09.49-.94.33-1.69.85-2.25,1.55-.56.71-.84,1.62-.84,2.74,0,.93.19,1.68.58,2.26s.88,1.04,1.49,1.39c.61.35,1.25.63,1.91.84s1.31.42,1.91.61c.61.19,1.11.43,1.49.7.39.27.58.64.58,1.1,0,.41-.14.74-.42,1s-.64.46-1.07.59c-.44.13-.9.2-1.41.2-.35,0-.75-.03-1.22-.1-.35-.05-.67-.12-.98-.2l-.27-2.14h-2.55l-.17,4.38c.91.23,1.79.42,2.65.55.86.14,1.68.2,2.45.2,1.33,0,2.53-.19,3.6-.58,1.06-.39,1.9-.97,2.52-1.74Z"/><path class="cls-2" d="m197.11,220.77c.5.07.99.1,1.45.1,1.53,0,2.87-.31,4.02-.94s2.04-1.57,2.68-2.83c.64-1.26.96-2.82.96-4.7,0-1.66-.25-3.07-.74-4.22-.49-1.15-1.17-2.02-2.02-2.61-.85-.59-1.84-.88-2.96-.88-.93,0-1.82.21-2.68.64-.74.37-1.51.89-2.29,1.55l-.36-1.98-5.1.23v2.09l1.94.58v16.67l-1.94.64v2.09h8.27v-2.09l-2.26-.61v-3.91c.35.07.71.14,1.04.18Zm1.8-13.09c.66,0,1.21.21,1.65.62.44.42.79,1.01,1.04,1.77.25.76.38,1.68.38,2.74,0,1.6-.31,2.87-.94,3.8-.63.93-1.63,1.39-3,1.39-.6,0-1.26-.11-1.97-.29v-8.79c.42-.35.84-.64,1.25-.84.56-.27,1.09-.41,1.59-.41Z"/><path class="cls-2" d="m209.65,208.59c-.61,1.25-.91,2.74-.91,4.48,0,2.49.62,4.42,1.87,5.77s3.01,2.03,5.29,2.03c1.62,0,3.02-.34,4.18-1.01,1.16-.68,2.05-1.64,2.67-2.89s.93-2.74.93-4.48c0-2.49-.64-4.42-1.91-5.77s-3.05-2.03-5.34-2.03c-1.62,0-3.01.34-4.15,1.01-1.14.68-2.02,1.64-2.62,2.89Zm4.1.29c.54-.86,1.36-1.29,2.46-1.29s1.89.41,2.44,1.23c.54.82.81,2.11.81,3.87,0,1.16-.13,2.14-.38,2.93-.25.79-.62,1.38-1.1,1.77-.48.39-1.11.58-1.88.58-1.06,0-1.86-.4-2.38-1.2-.52-.8-.78-2.1-.78-3.9s.27-3.13.81-3.99Z"/><path class="cls-2" d="m228.84,219.61c.87.84,1.94,1.26,3.22,1.26.95,0,1.94-.23,2.99-.7.89-.39,1.74-.97,2.55-1.69l.43,2.24,5.08-.23v-2.06l-1.91-.6v-12.91l-6,.2v2.09l1.94.58v8.5c-.53.48-1.06.84-1.6,1.08-.62.28-1.19.42-1.71.42-.68,0-1.22-.22-1.62-.65-.41-.43-.61-1.11-.61-2.01v-10.21l-6,.2v2.09l1.94.58v8c0,1.7.44,2.97,1.31,3.81Z"/><path class="cls-2" d="m253.6,218.44l-2.41-.56v-8.39c.36-.41.75-.78,1.2-1.06.59-.37,1.18-.55,1.78-.55.12,0,.24,0,.36.03.03,0,.05.01.08.02l.31,2.33h2.38l.26-5.28c-.7-.19-1.35-.29-1.97-.29-.97,0-1.88.25-2.73.74-.71.41-1.43.98-2.16,1.69l-.42-2.22-5.1.23v2.09l1.94.58v10.09l-1.94.55v2.09h8.41v-2.09Z"/><polygon class="cls-2" points="6.5 235.96 .52 236.19 .52 238.28 2.44 238.81 2.44 255.89 .52 256.43 .52 258.52 8.44 258.52 8.44 256.43 6.5 255.88 6.5 235.96"/><path class="cls-2" d="m12.36,235.61c-.52,0-1,.17-1.42.52-.43.35-.64.87-.64,1.57,0,.41.07.75.2,1.03.13.28.28.53.42.75.15.22.22.46.22.71,0,.23-.1.6-.29,1.12-.19.51-.58,1.26-1.16,2.25l1.36.9c1.29-1.39,2.19-2.64,2.7-3.74.5-1.1.75-2.02.75-2.75,0-.79-.22-1.38-.67-1.77-.44-.39-.94-.58-1.48-.58Z"/><polygon class="cls-2" points="29.68 255.53 23.75 255.53 23.75 249.56 29.99 249.56 29.99 246.69 23.75 246.69 23.75 241.09 29.32 241.09 29.78 243.32 32.25 243.32 32.25 238.1 23.67 238.1 17.46 238.25 17.46 240.34 19.6 240.92 19.6 255.81 17.46 256.43 17.46 258.52 32.57 258.52 32.63 253.07 30.16 253.07 29.68 255.53"/><path class="cls-2" d="m43.44,235.73c-1.86,0-3.33.5-4.44,1.49-1.1,1-1.65,2.53-1.65,4.6v1.37l-2.03.52v2.18h2.03v10l-1.94.56v2.09h8.32v-2.09l-2.32-.57v-9.98h3.54l.09-2.7h-3.62v-1.71c0-1.04.26-1.78.77-2.22s1.16-.65,1.96-.65c.35,0,.72.03,1.1.1s.76.16,1.13.28l.58-2.7c-.66-.17-1.27-.31-1.84-.41-.57-.1-1.13-.14-1.67-.14Z"/><path class="cls-2" d="m54.98,235.73c-1.14,0-2.16.22-3.05.67-.89.45-1.58,1.12-2.07,2.02-.49.9-.74,2.04-.74,3.41v1.37l-2.03.52v2.18h2.03v10l-1.94.56v2.09h8.32v-2.09l-2.32-.57v-9.98h3.62l.09-2.7h-3.71v-1.71c0-1,.2-1.73.61-2.17.41-.45,1-.67,1.77-.67.21,0,.44.01.7.04.25.03.52.09.81.19l.52-2.81c-.46-.12-.91-.2-1.35-.25-.44-.05-.86-.07-1.26-.07Z"/><polygon class="cls-2" points="64.79 242.92 58.78 243.12 58.78 245.21 60.73 245.75 60.73 255.88 58.78 256.43 58.78 258.52 66.73 258.52 66.73 256.43 64.79 255.88 64.79 242.92"/><path class="cls-2" d="m60.94,236.5c-.45.4-.68,1-.68,1.81,0,.75.22,1.33.65,1.74.44.41,1.01.61,1.73.61.68,0,1.24-.2,1.7-.59.45-.4.68-.99.68-1.78s-.22-1.39-.67-1.78c-.45-.4-1.01-.59-1.68-.59s-1.27.2-1.73.59Z"/><path class="cls-2" d="m78.71,255.51c-.72.25-1.37.38-1.97.38-.75,0-1.42-.2-1.99-.59s-1.01-.98-1.32-1.75c-.31-.77-.46-1.72-.46-2.84,0-1.04.13-1.95.41-2.71.27-.76.68-1.35,1.23-1.77.55-.42,1.24-.62,2.07-.62.35,0,.73.03,1.15.09.29.04.54.1.76.17l.41,2.24h2.61l.12-4.26c-.6-.29-1.37-.55-2.32-.78-.95-.23-1.89-.35-2.81-.35-.99,0-1.94.14-2.87.43-.93.29-1.77.76-2.52,1.41-.75.65-1.35,1.49-1.8,2.54s-.67,2.33-.67,3.86c0,1.68.31,3.11.93,4.29.62,1.18,1.46,2.08,2.54,2.71,1.07.63,2.28.94,3.61.94,1.08,0,2.17-.2,3.25-.59,1.08-.4,2.17-1.01,3.25-1.84l-1.36-2.06c-.77.5-1.52.88-2.23,1.13Z"/><path class="cls-2" d="m97.06,247.44c0-1.62-.47-2.82-1.42-3.6-.95-.77-2.32-1.16-4.12-1.16-.91,0-1.91.09-3,.28-1.09.18-2.3.47-3.61.86l.23,4.23h2.52l.32-2c.41-.11.8-.2,1.16-.26.46-.08.9-.12,1.31-.12.83,0,1.46.19,1.9.58s.65,1.03.65,1.94v1.6h-2.87c-1.3,0-2.4.14-3.31.43-.91.29-1.6.76-2.07,1.41-.47.65-.71,1.52-.71,2.62,0,1.49.41,2.63,1.22,3.42s1.84,1.19,3.07,1.19c.97,0,1.9-.23,2.81-.7.82-.42,1.59-1.05,2.3-1.87l.48,2.45,5.07-.26v-2.06l-1.94-.61v-8.38Zm-7.13,8.5c-.52,0-.95-.17-1.29-.51-.34-.34-.51-.86-.51-1.58,0-.66.19-1.14.58-1.45.39-.31,1.08-.46,2.09-.46h2.2v2.47c-.47.44-.96.81-1.48,1.08-.58.3-1.11.45-1.59.45Z"/><path class="cls-2" d="m110.89,255.51c-.72.25-1.37.38-1.97.38-.75,0-1.42-.2-1.99-.59s-1.01-.98-1.32-1.75c-.31-.77-.46-1.72-.46-2.84,0-1.04.13-1.95.41-2.71.27-.76.68-1.35,1.23-1.77.55-.42,1.24-.62,2.07-.62.35,0,.73.03,1.15.09.29.04.54.1.76.17l.41,2.24h2.61l.12-4.26c-.6-.29-1.37-.55-2.32-.78-.95-.23-1.89-.35-2.81-.35-.99,0-1.94.14-2.87.43-.93.29-1.77.76-2.52,1.41-.75.65-1.35,1.49-1.8,2.54s-.67,2.33-.67,3.86c0,1.68.31,3.11.93,4.29.62,1.18,1.46,2.08,2.54,2.71,1.07.63,2.28.94,3.61.94,1.08,0,2.17-.2,3.25-.59,1.08-.4,2.17-1.01,3.25-1.84l-1.36-2.06c-.77.5-1.52.88-2.23,1.13Z"/><path class="cls-2" d="m121.81,240.06c.45-.4.68-.99.68-1.78s-.22-1.39-.67-1.78c-.45-.4-1.01-.59-1.68-.59s-1.27.2-1.73.59c-.45.4-.68,1-.68,1.81,0,.75.22,1.33.65,1.74.44.41,1.01.61,1.73.61.68,0,1.24-.2,1.7-.59Z"/><polygon class="cls-2" points="122.26 242.92 116.26 243.12 116.26 245.21 118.2 245.75 118.2 255.88 116.26 256.43 116.26 258.52 124.21 258.52 124.21 256.43 122.26 255.88 122.26 242.92"/><path class="cls-2" d="m134.54,255.72c-.38.11-.72.16-1.03.16-.54,0-.95-.18-1.22-.55-.27-.37-.41-.97-.41-1.8v-7.8h3.92l.06-2.7h-3.97v-4.12l-4.09.72v3.38l-2.26.53v2.17h2.26v8.35c0,1.58.34,2.78,1.03,3.58.69.8,1.7,1.2,3.03,1.2,1.49,0,3.04-.44,4.67-1.33l-.75-2.23c-.45.17-.86.31-1.23.42Z"/><path class="cls-2" d="m149.26,243.59c-.95-.6-2.17-.9-3.68-.9s-2.89.34-4.03,1.01c-1.14.68-2.03,1.64-2.65,2.89s-.94,2.74-.94,4.48.29,3.11.88,4.28c.59,1.17,1.42,2.05,2.48,2.64,1.06.59,2.3.88,3.71.88,1.1,0,2.24-.19,3.41-.57s2.32-.95,3.44-1.73l-1.36-2.17c-.83.48-1.63.85-2.39,1.09-.76.24-1.47.36-2.13.36-.93,0-1.68-.23-2.25-.7-.57-.46-.98-1.1-1.23-1.91-.16-.51-.25-1.08-.31-1.68h9.65c.06-.37.1-.71.13-1.04.03-.33.04-.66.04-.99,0-1.29-.22-2.46-.67-3.49s-1.14-1.85-2.09-2.45Zm-5.83,2.68c.46-.43,1.07-.65,1.83-.65.66,0,1.17.17,1.55.49.38.33.65.79.81,1.38.14.49.19,1.05.2,1.67h-5.62c.05-.4.12-.77.22-1.13.2-.73.54-1.32,1-1.75Z"/><polygon class="cls-2" points="143.29 240.95 149.96 237.06 147.9 234.28 141.87 238.98 143.29 240.95"/><polygon class="cls-2" points="172.93 255.53 167.01 255.53 167.01 249.56 173.24 249.56 173.24 246.69 167.01 246.69 167.01 241.09 172.58 241.09 173.04 243.32 175.51 243.32 175.51 238.1 166.92 238.1 160.72 238.25 160.72 240.34 162.86 240.92 162.86 255.81 160.72 256.43 160.72 258.52 175.82 258.52 175.88 253.07 173.42 253.07 172.93 255.53"/><polygon class="cls-2" points="165.94 236.68 173.01 233.84 171.45 230.77 164.78 234.48 165.94 236.68"/><path class="cls-2" d="m194.21,247.65c.02-1.66-.41-2.9-1.28-3.73-.87-.82-1.96-1.23-3.28-1.23-.95,0-1.94.23-2.99.68-.89.39-1.74.97-2.55,1.72l-.41-2.19-5.1.23v2.09l1.94.58v10.09l-1.94.56v2.09h7.74v-2.09l-1.74-.52v-8.63c.52-.46,1.04-.84,1.57-1.09.62-.29,1.19-.43,1.71-.43.68,0,1.22.22,1.64.67s.62,1.14.62,2.09v7.41l-1.74.5v2.09h7.74v-2.09l-1.94-.58v-8.2Z"/><path class="cls-2" d="m209.38,243.59c-.95-.6-2.17-.9-3.68-.9s-2.89.34-4.03,1.01c-1.14.68-2.03,1.64-2.65,2.89s-.94,2.74-.94,4.48.29,3.11.88,4.28c.59,1.17,1.42,2.05,2.48,2.64,1.06.59,2.3.88,3.71.88,1.1,0,2.24-.19,3.41-.57s2.32-.95,3.44-1.73l-1.36-2.17c-.83.48-1.63.85-2.39,1.09-.76.24-1.47.36-2.13.36-.93,0-1.68-.23-2.25-.7-.57-.46-.98-1.1-1.23-1.91-.16-.51-.25-1.08-.31-1.68h9.65c.06-.37.1-.71.13-1.04.03-.33.04-.66.04-.99,0-1.29-.22-2.46-.67-3.49s-1.14-1.85-2.09-2.45Zm-5.83,2.68c.46-.43,1.07-.65,1.83-.65.66,0,1.17.17,1.55.49.38.33.65.79.81,1.38.14.49.19,1.05.2,1.67h-5.62c.05-.4.12-.77.22-1.13.2-.73.54-1.32,1-1.75Z"/><path class="cls-2" d="m222.34,243.43c-.71.41-1.43.98-2.16,1.69l-.42-2.22-5.1.23v2.09l1.94.58v10.09l-1.94.55v2.09h8.41v-2.09l-2.41-.56v-8.39c.36-.41.75-.78,1.2-1.06.59-.37,1.18-.55,1.78-.55.12,0,.24,0,.36.03.03,0,.05.01.08.02l.31,2.33h2.38l.26-5.28c-.7-.19-1.35-.29-1.97-.29-.97,0-1.88.25-2.73.74Z"/><path class="cls-2" d="m242.38,257.1c-1.01-.75-2.48-1.13-4.44-1.13h-5.15l.34-2.28c.75.17,1.51.28,2.31.28,2.13,0,3.82-.52,5.08-1.55,1.26-1.03,1.88-2.45,1.88-4.25,0-.6-.08-1.13-.23-1.6-.11-.33-.26-.61-.44-.88l1.8-.36v-2.17l-4.38.16c-1.01-.41-2.18-.62-3.54-.62-2.19,0-3.89.51-5.12,1.52-1.23,1.01-1.84,2.42-1.84,4.22,0,1.12.25,2.09.75,2.9.44.71,1.06,1.27,1.86,1.7-.28.46-.53.87-.73,1.2-.27.45-.48.82-.64,1.12-.15.3-.26.55-.32.74s-.09.38-.09.55c0,.54.23.98.7,1.3.17.12.37.2.58.28-.68.32-1.24.68-1.66,1.09-.67.65-1,1.45-1,2.42,0,1.26.59,2.2,1.77,2.84,1.18.64,2.98.96,5.39.96,2.86,0,5.01-.44,6.45-1.32,1.44-.88,2.16-2.15,2.16-3.81,0-1.45-.5-2.55-1.51-3.31Zm-8.93-10.96c.48-.48,1.2-.73,2.15-.73s1.62.23,2.09.68c.46.46.7,1.17.7,2.16s-.25,1.73-.75,2.23c-.5.5-1.23.75-2.18.75-.89,0-1.57-.25-2.03-.75-.46-.5-.7-1.23-.7-2.17s.24-1.69.73-2.17Zm5.52,16.07c-.69.33-1.8.49-3.35.49-1.37,0-2.38-.14-3.02-.43-.64-.29-.96-.72-.96-1.28,0-.75.45-1.42,1.29-2.03h4.36c.87,0,1.54.15,2,.44.46.29.7.74.7,1.36s-.34,1.12-1.03,1.45Z"/><polygon class="cls-2" points="249.42 238.98 250.85 240.95 257.52 237.06 255.46 234.28 249.42 238.98"/><path class="cls-2" d="m256.82,243.59c-.95-.6-2.17-.9-3.68-.9s-2.89.34-4.03,1.01c-1.14.68-2.03,1.64-2.65,2.89s-.94,2.74-.94,4.48.29,3.11.88,4.28c.59,1.17,1.42,2.05,2.48,2.64,1.06.59,2.3.88,3.71.88,1.1,0,2.24-.19,3.41-.57s2.32-.95,3.44-1.73l-1.36-2.17c-.83.48-1.63.85-2.39,1.09-.76.24-1.47.36-2.13.36-.93,0-1.68-.23-2.25-.7-.57-.46-.98-1.1-1.23-1.91-.16-.51-.25-1.08-.31-1.68h9.65c.06-.37.1-.71.13-1.04.03-.33.04-.66.04-.99,0-1.29-.22-2.46-.67-3.49s-1.14-1.85-2.09-2.45Zm-5.83,2.68c.46-.43,1.07-.65,1.83-.65.66,0,1.17.17,1.55.49.38.33.65.79.81,1.38.14.49.19,1.05.2,1.67h-5.62c.05-.4.12-.77.22-1.13.2-.73.54-1.32,1-1.75Z"/><path class="cls-2" d="m270.46,255.72c-.38.11-.72.16-1.03.16-.54,0-.95-.18-1.22-.55-.27-.37-.41-.97-.41-1.8v-7.8h3.92l.06-2.7h-3.97v-4.12l-4.09.72v3.38l-2.26.53v2.17h2.26v8.35c0,1.58.34,2.78,1.03,3.58.69.8,1.7,1.2,3.03,1.2,1.49,0,3.04-.44,4.67-1.33l-.75-2.23c-.45.17-.86.31-1.23.42Z"/><polygon class="cls-2" points="280.31 242.92 274.31 243.12 274.31 245.21 276.25 245.75 276.25 255.88 274.31 256.43 274.31 258.52 282.25 258.52 282.25 256.43 280.31 255.88 280.31 242.92"/><path class="cls-2" d="m276.47,236.5c-.46.4-.68,1-.68,1.81,0,.75.22,1.33.65,1.74.43.41,1.01.61,1.73.61.68,0,1.24-.2,1.7-.59.45-.4.68-.99.68-1.78s-.22-1.39-.67-1.78c-.45-.4-1.01-.59-1.68-.59s-1.27.2-1.72.59Z"/><path class="cls-2" d="m298.55,243.32c-1-.19-1.97-.35-2.9-.46-.93-.12-1.82-.17-2.67-.17-1.72,0-3.23.27-4.52.81-1.29.54-2.31,1.43-3.03,2.67-.73,1.24-1.09,2.89-1.09,4.96,0,1.66.25,3.07.74,4.23.49,1.16,1.17,2.04,2.03,2.62.86.59,1.85.88,2.97.88.93,0,1.81-.21,2.65-.62.58-.29,1.17-.68,1.75-1.17v5.28l-2.38.66v2.17h8.38v-2.17l-1.94-.63v-19.06Zm-6.9,12.56c-.64,0-1.18-.21-1.64-.62-.46-.42-.81-1.01-1.06-1.78-.25-.77-.38-1.68-.38-2.73,0-1.6.31-2.87.94-3.78.63-.92,1.63-1.38,3-1.38.59,0,1.26.1,1.97.27v8.77c-.42.34-.84.63-1.25.83-.56.28-1.09.42-1.59.42Z"/><path class="cls-2" d="m317.14,242.92l-6,.2v2.09l1.94.58v8.5c-.53.48-1.06.84-1.59,1.08-.62.28-1.19.42-1.71.42-.68,0-1.22-.22-1.62-.65-.41-.43-.61-1.11-.61-2.01v-10.21l-6,.2v2.09l1.94.58v8c0,1.7.43,2.97,1.3,3.81.87.84,1.94,1.26,3.22,1.26.95,0,1.94-.23,2.99-.7.89-.39,1.73-.97,2.55-1.69l.44,2.24,5.07-.23v-2.06l-1.91-.6v-12.91Z"/><path class="cls-2" d="m335.22,250.52c.03-.33.04-.66.04-.99,0-1.29-.22-2.46-.67-3.49-.45-1.03-1.14-1.85-2.09-2.45-.95-.6-2.17-.9-3.68-.9s-2.89.34-4.03,1.01c-1.14.68-2.03,1.64-2.65,2.89-.63,1.25-.94,2.74-.94,4.48s.29,3.11.88,4.28c.59,1.17,1.42,2.05,2.48,2.64,1.06.59,2.3.88,3.71.88,1.1,0,2.24-.19,3.41-.57,1.17-.38,2.31-.95,3.44-1.73l-1.36-2.17c-.83.48-1.63.85-2.39,1.09s-1.47.36-2.13.36c-.93,0-1.68-.23-2.25-.7s-.98-1.1-1.23-1.91c-.16-.51-.25-1.08-.31-1.68h9.65c.06-.37.1-.71.13-1.04Zm-8.54-4.25c.46-.43,1.07-.65,1.83-.65.66,0,1.17.17,1.55.49.38.33.65.79.81,1.38.14.49.19,1.05.2,1.67h-5.62c.05-.4.12-.77.22-1.13.2-.73.54-1.32,1-1.75Z"/></g></svg>